HIERARCHY
ROOT SpineBase
{
  OFFSET 0.000000 0.000000 0.000000
  CHANNELS 6 Xposition Yposition Zposition Zrotation Xrotation Yrotation
  JOINT SpineMid
  {
    OFFSET 0.000000 29.316551 0.000000
    CHANNELS 3 Zrotation Xrotation Yrotation
    JOINT SpineShoulder
    {
      OFFSET -0.001617 21.790939 -0.662621
      CHANNELS 3 Zrotation Xrotation Yrotation
      JOINT Neck
      {
        OFFSET -0.009155 7.213749 -0.520744
        CHANNELS 3 Zrotation Xrotation Yrotation
        JOINT Head
        {
          OFFSET -2.632051 12.655260 0.364435
          CHANNELS 3 Zrotation Xrotation Yrotation
          End Site
          {
            OFFSET 0 0 0
          }
        }
      }
      JOINT ShoulderLeft
      {
        OFFSET -13.696578 -3.009336 6.863114
        CHANNELS 3 Zrotation Xrotation Yrotation
        JOINT ElbowLeft
        {
          OFFSET -1.066866 -26.541110 -1.322103
          CHANNELS 3 Zrotation Xrotation Yrotation
          JOINT WristLeft
          {
            OFFSET 1.111561 -26.279408 1.444236
            CHANNELS 3 Zrotation Xrotation Yrotation
            JOINT HandLeft
            {
              OFFSET -0.337320 -4.601745 -0.101564
              CHANNELS 3 Zrotation Xrotation Yrotation
              JOINT HandTipLeft
              {
                OFFSET 1.089132 -4.173335 -1.005594
                CHANNELS 3 Zrotation Xrotation Yrotation
                End Site
                {
                  OFFSET 0 0 0
                }
              }
              JOINT ThumbLeft
              {
                OFFSET -1.566042 -0.813862 -1.886010
                CHANNELS 3 Zrotation Xrotation Yrotation
                End Site
                {
                  OFFSET 0 0 0
                }
              }
            }
          }
        }
      }
      JOINT ShoulderRight
      {
        OFFSET 11.362857 -3.421792 -10.876525
        CHANNELS 3 Zrotation Xrotation Yrotation
        JOINT ElbowRight
        {
          OFFSET 6.187242 -21.388262 -1.689751
          CHANNELS 3 Zrotation Xrotation Yrotation
          JOINT WristRight
          {
            OFFSET -0.723156 -19.575813 -6.022124
            CHANNELS 3 Zrotation Xrotation Yrotation
            JOINT HandRight
            {
              OFFSET -1.135251 -7.463750 0.246936
              CHANNELS 3 Zrotation Xrotation Yrotation
              JOINT HandTipRight
              {
                OFFSET 0.889409 -6.743201 -0.118066
                CHANNELS 3 Zrotation Xrotation Yrotation
                End Site
                {
                  OFFSET 0 0 0
                }
              }
              JOINT ThumbRight
              {
                OFFSET 2.545394 0.847744 -1.450649
                CHANNELS 3 Zrotation Xrotation Yrotation
                End Site
                {
                  OFFSET 0 0 0
                }
              }
            }
          }
        }
      }
    }
  }
  JOINT HipLeft
  {
    OFFSET -5.180185 0.151313 0.000365
    CHANNELS 3 Zrotation Xrotation Yrotation
    JOINT KneeLeft
    {
      OFFSET 7.454181 -29.393629 8.437522
      CHANNELS 3 Zrotation Xrotation Yrotation
      JOINT AnkleLeft
      {
        OFFSET 6.827307 -31.074680 7.369682
        CHANNELS 3 Zrotation Xrotation Yrotation
        JOINT FootLeft
        {
          OFFSET -1.844353 -4.409146 -7.947523
          CHANNELS 3 Zrotation Xrotation Yrotation
          End Site
          {
            OFFSET 0 0 0
          }
        }
      }
    }
  }
  JOINT HipRight
  {
    OFFSET 4.949598 1.468887 -6.632710
    CHANNELS 3 Zrotation Xrotation Yrotation
    JOINT KneeRight
    {
      OFFSET 8.616330 -27.490914 4.883298
      CHANNELS 3 Zrotation Xrotation Yrotation
      JOINT AnkleRight
      {
        OFFSET 5.937154 -30.307781 5.589923
        CHANNELS 3 Zrotation Xrotation Yrotation
        JOINT FootRight
        {
          OFFSET -4.031579 -3.582068 -6.856312
          CHANNELS 3 Zrotation Xrotation Yrotation
          End Site
          {
            OFFSET 0 0 0
          }
        }
      }
    }
  }
}
MOTION
Frames: 12
Frame Time: 0.033333
11.322871 66.915749 329.683266 0.101139 -0.568095 36.101259 -0.159648 -0.460975 -36.094362 0.106359 -0.160208 0.015938 -1.427951 1.681919 0.139514 0.000000 0.000000 0.000000 1.154166 -12.963273 0.636335 -4.236395 23.257331 0.827166 -6.168397 -26.298677 -1.286642 -3.535107 2.034092 -1.997490 0.000000 0.000000 0.000000 0.000000 0.000000 0.000000 15.328560 8.814416 -0.416793 -59.250556 -2.683567 7.669394 27.779363 -74.151676 -10.327032 -80.620495 58.405735 69.220961 0.000000 0.000000 0.000000 0.000000 0.000000 0.000000 -2.382805 1.934785 -37.005004 5.222766 -1.911492 0.975973 2.675781 -4.113127 -6.816003 0.000000 0.000000 0.000000 1.288850 3.468457 -35.354407 1.416056 -7.451746 -1.462009 -2.572782 5.890567 2.783089 0.000000 0.000000 0.000000
11.348607 66.883121 329.589740 0.161910 -0.523243 35.956999 -0.153709 -0.459965 -35.947611 0.132394 -0.147859 0.020453 -1.458380 1.332484 0.066692 0.000000 0.000000 0.000000 1.057036 -13.490295 0.657121 -4.054992 25.071682 0.876702 -6.523584 -24.033066 -1.575037 -6.014523 -3.308323 -2.027301 0.000000 0.000000 0.000000 0.000000 0.000000 0.000000 14.872992 8.887171 -0.327607 -59.036638 -2.726844 7.581455 30.717421 -73.869151 -8.147319 -80.780695 62.469664 69.912271 0.000000 0.000000 0.000000 0.000000 0.000000 0.000000 -2.420516 2.075563 -36.836383 5.268026 -2.321007 0.908373 -0.544221 5.658871 -4.104664 0.000000 0.000000 0.000000 0.659887 2.844379 -35.462220 1.418496 -6.334928 -1.174104 -2.438140 8.137013 -0.013853 0.000000 0.000000 0.000000
11.382227 66.851915 329.479928 0.220061 -0.447623 35.817525 -0.146209 -0.450069 -35.805914 0.148972 -0.144333 0.024203 -1.553020 0.981827 0.004506 0.000000 0.000000 0.000000 0.914701 -14.269516 0.687480 -3.958150 26.075098 0.889397 -4.873753 -10.803000 -1.294287 -9.146047 -18.634909 -4.164531 0.000000 0.000000 0.000000 0.000000 0.000000 0.000000 13.570942 8.695415 -0.128463 -57.980049 -2.647503 7.725178 33.610875 -74.226558 -5.963275 -83.514838 60.985697 71.696814 0.000000 0.000000 0.000000 0.000000 0.000000 0.000000 -2.339245 2.587204 -36.602533 5.423387 -3.485680 0.726802 -4.365775 6.950135 2.635773 0.000000 0.000000 0.000000 0.437955 2.377065 -35.424718 1.121403 -5.769989 -1.088745 -4.208822 13.872254 -2.239025 0.000000 0.000000 0.000000
11.421403 66.819381 329.358672 0.265670 -0.363620 35.721219 -0.146531 -0.435264 -35.708217 0.153315 -0.148068 0.026291 -1.460407 0.707609 -0.045690 0.000000 0.000000 0.000000 0.795515 -15.120640 0.721967 -4.035284 25.861912 0.871976 -5.055486 -10.587961 -1.174862 -7.724444 -16.687295 -3.614814 0.000000 0.000000 0.000000 0.000000 0.000000 0.000000 11.936203 8.415696 0.110049 -56.541022 -2.528849 7.939765 37.178475 -74.204854 -3.249610 -85.312868 57.688202 71.827921 0.000000 0.000000 0.000000 0.000000 0.000000 0.000000 -2.119187 2.601034 -36.393207 4.948554 -4.059689 0.484849 -5.714671 8.831521 4.872474 0.000000 0.000000 0.000000 0.147695 1.920704 -35.451303 0.947297 -5.172960 -0.965342 -4.303294 14.329945 -2.430416 0.000000 0.000000 0.000000
11.446307 66.781744 329.248713 0.277702 -0.278520 35.673860 -0.141394 -0.420645 -35.660636 0.146387 -0.161525 0.026443 -1.283397 0.373398 -0.108210 0.000000 0.000000 0.000000 0.723279 -15.953359 0.757591 -3.986806 26.605349 0.880258 -6.204053 -4.026816 -1.328931 -8.059122 -23.413663 -4.627592 0.000000 0.000000 0.000000 0.000000 0.000000 0.000000 10.186457 8.088520 0.354947 -54.931511 -2.374889 8.193914 38.862366 -73.952193 -2.058667 -84.140025 61.874100 71.387348 0.000000 0.000000 0.000000 0.000000 0.000000 0.000000 -2.008298 2.837138 -36.270071 4.972850 -4.778753 0.350885 -6.094569 9.190997 5.631165 0.000000 0.000000 0.000000 -0.459783 1.413717 -35.641456 1.186947 -4.276562 -0.675427 -3.566114 11.793400 -1.681969 0.000000 0.000000 0.000000
11.451024 66.754763 329.155397 0.253510 -0.232946 35.793459 -0.069390 0.337217 -35.792740 0.490992 -0.813830 0.037878 -0.490503 0.814125 -0.030906 0.000000 0.000000 0.000000 0.722499 -16.603500 0.788769 -3.936631 27.206697 0.884335 -7.357961 0.128310 -1.383806 -7.923356 -28.430623 -5.751183 0.000000 0.000000 0.000000 0.000000 0.000000 0.000000 8.719426 7.837412 0.562434 -53.562289 -2.240394 8.410134 42.561423 -73.441332 0.654407 -83.094113 62.912517 69.680971 0.000000 0.000000 0.000000 0.000000 0.000000 0.000000 -1.988070 3.217636 -36.361317 5.333360 -5.461053 0.321471 -9.560307 11.931177 10.207901 0.000000 0.000000 0.000000 -0.759375 1.007509 -35.910087 1.234695 -3.698574 -0.507122 -3.565165 11.698802 -1.728464 0.000000 0.000000 0.000000
11.445738 66.726979 329.064728 0.231438 -0.189496 35.863658 -0.076544 0.289160 -35.863082 0.463533 -0.753675 0.035537 -0.868927 0.061958 -0.158956 0.000000 0.000000 0.000000 0.883484 -17.472126 0.847394 -4.070241 27.925521 0.922225 -10.073269 8.291742 -1.225414 -4.454947 -38.539782 -7.517025 0.000000 0.000000 0.000000 0.000000 0.000000 0.000000 7.452708 7.594738 0.730517 -52.467613 -2.337046 8.538929 43.511088 -72.014262 0.876669 -81.002354 61.997644 66.866702 0.000000 0.000000 0.000000 0.000000 0.000000 0.000000 -2.151435 3.050290 -36.496627 5.450268 -5.220078 0.399820 -13.561347 14.290011 15.373547 0.000000 0.000000 0.000000 -0.860073 0.801491 -36.035897 1.250201 -3.610172 -0.466922 -3.570857 11.831304 -1.792376 0.000000 0.000000 0.000000
11.426486 66.699953 328.999321 0.202192 -0.198498 35.951521 -0.047141 0.279393 -35.951056 0.423212 -0.736184 0.032320 -0.685332 -0.110080 -0.194097 0.000000 0.000000 0.000000 0.942814 -17.467289 0.851082 -4.091815 27.961270 0.930668 -11.266777 10.690925 -1.108339 -1.565760 -39.837943 -6.526823 0.000000 0.000000 0.000000 0.000000 0.000000 0.000000 6.713805 7.470651 0.828951 -51.674880 -2.190894 8.649259 44.712466 -72.203236 1.894681 -79.286984 60.935426 64.469944 0.000000 0.000000 0.000000 0.000000 0.000000 0.000000 -2.151693 3.233116 -36.586944 5.693131 -5.439446 0.427740 -14.008882 14.370965 15.930365 0.000000 0.000000 0.000000 -0.734154 0.822937 -36.088761 1.191479 -3.936176 -0.548010 -4.134658 14.681094 -3.140311 0.000000 0.000000 0.000000
11.374025 66.694590 328.964660 0.145945 -0.270165 36.027677 0.040874 0.304332 -36.027441 0.353274 -0.779475 0.026903 -0.496900 -0.123551 -0.205086 0.000000 0.000000 0.000000 0.936941 -16.633356 0.805184 -3.961587 27.386178 0.895271 -11.856671 7.017505 -1.341747 2.025197 -35.914887 -5.179516 0.000000 0.000000 0.000000 0.000000 0.000000 0.000000 6.444536 7.590075 0.896555 -51.234751 -1.780557 8.699170 47.794237 -74.295324 5.077287 -83.466541 60.144465 68.182868 0.000000 0.000000 0.000000 0.000000 0.000000 0.000000 -2.220272 2.885717 -36.739680 5.676083 -4.725485 0.557367 -12.303396 13.347163 13.388729 0.000000 0.000000 0.000000 -0.294152 1.136958 -36.008998 1.100520 -4.801010 -0.774327 -3.389115 11.854707 -1.490625 0.000000 0.000000 0.000000
11.296535 66.697946 328.922050 0.063751 -0.337954 36.103803 0.147633 0.310615 -36.104015 0.261632 -0.845214 0.019733 -0.249239 -0.056392 -0.203890 0.000000 0.000000 0.000000 0.910071 -15.290989 0.732710 -3.841122 26.437256 0.869565 -11.514334 2.064883 -1.658983 4.161604 -29.970485 -4.177111 0.000000 0.000000 0.000000 0.000000 0.000000 0.000000 7.104860 7.976113 0.878749 -51.792580 -1.568712 8.538591 49.501912 -76.446134 7.190598 -84.083770 60.248531 68.939603 0.000000 0.000000 0.000000 0.000000 0.000000 0.000000 -2.245979 2.384951 -36.892407 5.525253 -3.843583 0.681203 -12.288092 13.018952 13.165112 0.000000 0.000000 0.000000 0.494950 1.708111 -35.787405 0.894736 -6.235825 -1.174131 -2.631428 9.370272 0.151203 0.000000 0.000000 0.000000
11.211356 66.702387 328.838900 -0.015903 -0.376270 36.179024 0.234955 0.294328 -36.179679 0.168226 -0.902819 0.012316 0.077950 -0.001011 -0.206629 0.000000 0.000000 0.000000 0.723496 -14.162791 0.663274 -3.639328 25.708943 0.846207 -10.052659 -2.928367 -1.835590 3.739062 -24.258528 -3.865809 0.000000 0.000000 0.000000 0.000000 0.000000 0.000000 8.364130 8.503015 0.794195 -53.059775 -1.512737 8.247272 51.618341 -78.066648 9.448042 -87.379307 58.786270 72.063774 0.000000 0.000000 0.000000 0.000000 0.000000 0.000000 -2.384019 1.570800 -37.095656 5.258447 -2.419904 0.877919 -12.241582 12.460166 12.836026 0.000000 0.000000 0.000000 0.987962 1.960024 -35.698648 0.657261 -7.001997 -1.417001 -1.838835 7.173484 1.473643 0.000000 0.000000 0.000000
11.123529 66.719239 328.719868 -0.097343 -0.420294 36.214815 0.326856 0.281582 -36.215975 0.066878 -0.952145 0.004173 0.409496 0.235575 -0.170631 0.000000 0.000000 0.000000 0.503956 -13.072255 0.599499 -3.519479 24.947762 0.850011 -6.124233 -8.302295 -1.523476 -0.241901 -18.838574 -3.836046 0.000000 0.000000 0.000000 0.000000 0.000000 0.000000 9.695552 9.004658 0.686108 -54.338374 -1.600614 7.897448 53.059249 -79.819127 11.248266 -91.587147 57.546640 76.545416 0.000000 0.000000 0.000000 0.000000 0.000000 0.000000 -2.369549 1.235501 -37.179326 5.156731 -1.952600 0.938030 -13.910314 13.542012 14.776050 0.000000 0.000000 0.000000 1.257415 1.974928 -35.676173 0.521368 -7.275216 -1.508868 -1.300984 5.666600 2.330716 0.000000 0.000000 0.000000
